<svg xmlns="http://www.w3.org/2000/svg" data-name="Layer 1" viewBox="0 0 32 32" id="cinema-reel"><path d="M19.15,14.9a3,3,0,0,0,.78.1,3.06,3.06,0,0,0,1.5-.4,3,3,0,1,0-2.28.3Zm-.22-4.63a2,2,0,1,1,2,3.46A2,2,0,0,1,18.2,13,2,2,0,0,1,18.93,10.27ZM6.85,17.1a3,3,0,0,0-3.38,4.4A3,3,0,0,0,6.08,23a3,3,0,0,0,1.49-.4,3,3,0,0,0-.72-5.5Zm.22,4.63a2,2,0,0,1-2-3.46,2,2,0,0,1,1-.27,1.86,1.86,0,0,1,.52.07A2,2,0,0,1,7.8,19,2,2,0,0,1,7.07,21.73ZM18,28a13,13,0,1,0-5,1H32V28ZM1,16A12,12,0,1,1,13,28,12,12,0,0,1,1,16ZM7.57,9.4a3,3,0,0,0-3,5.2,3.06,3.06,0,0,0,1.5.4,3,3,0,0,0,.78-.1,3,3,0,0,0,.72-5.5ZM7.8,13a2,2,0,0,1-2.73.73A2,2,0,1,1,7.8,13ZM13,5a3,3,0,1,0,3,3A3,3,0,0,0,13,5Zm0,5a2,2,0,1,1,2-2A2,2,0,0,1,13,10Zm9.53,11.5a3,3,0,0,0-1.1-4.1,3,3,0,0,0-2.28-.3,3,3,0,0,0-.72,5.5,3,3,0,0,0,1.49.4A3,3,0,0,0,22.53,21.5Zm-.87-.5a2,2,0,1,1-3.46-2,2,2,0,0,1,2.73-.73A2,2,0,0,1,21.66,21ZM13,13a3,3,0,1,0,3,3A3,3,0,0,0,13,13Zm0,5a2,2,0,1,1,2-2A2,2,0,0,1,13,18Zm0,3a3,3,0,1,0,3,3A3,3,0,0,0,13,21Zm0,5a2,2,0,1,1,2-2A2,2,0,0,1,13,26Z"></path></svg>